<?xml version="1.0" encoding="UTF-8"?><svg xmlns="http://www.w3.org/2000/svg" xmlns:xlink="http://www.w3.org/1999/xlink" fill-opacity="1" color-rendering="auto" color-interpolation="auto" text-rendering="auto" stroke="black" stroke-linecap="square" width="481" stroke-miterlimit="10" shape-rendering="auto" stroke-opacity="1" fill="black" stroke-dasharray="none" font-weight="normal" stroke-width="1" height="315" font-family="'Dialog'" font-style="normal" stroke-linejoin="miter" font-size="12px" stroke-dashoffset="0" image-rendering="auto">
  <!--Generated by ySVG 2.5-->
  <defs id="genericDefs"/>
  <g>
    <defs id="defs1">
      <linearGradient x1="406.68" gradientUnits="userSpaceOnUse" x2="557.68" y1="390" y2="430" id="linearGradient1" spreadMethod="reflect">
        <stop stop-opacity="1" stop-color="rgb(232,238,247)" offset="0%"/>
        <stop stop-opacity="1" stop-color="rgb(183,201,227)" offset="100%"/>
      </linearGradient>
      <linearGradient x1="406.68" gradientUnits="userSpaceOnUse" x2="557.68" y1="460" y2="500" id="linearGradient2" spreadMethod="reflect">
        <stop stop-opacity="1" stop-color="rgb(232,238,247)" offset="0%"/>
        <stop stop-opacity="1" stop-color="rgb(183,201,227)" offset="100%"/>
      </linearGradient>
      <linearGradient x1="406.68" gradientUnits="userSpaceOnUse" x2="557.68" y1="251.28" y2="291.28" id="linearGradient3" spreadMethod="reflect">
        <stop stop-opacity="1" stop-color="rgb(232,238,247)" offset="0%"/>
        <stop stop-opacity="1" stop-color="rgb(183,201,227)" offset="100%"/>
      </linearGradient>
      <linearGradient x1="127" gradientUnits="userSpaceOnUse" x2="278" y1="390" y2="430" id="linearGradient4" spreadMethod="reflect">
        <stop stop-opacity="1" stop-color="rgb(232,238,247)" offset="0%"/>
        <stop stop-opacity="1" stop-color="rgb(183,201,227)" offset="100%"/>
      </linearGradient>
      <linearGradient x1="127" gradientUnits="userSpaceOnUse" x2="278" y1="460" y2="500" id="linearGradient5" spreadMethod="reflect">
        <stop stop-opacity="1" stop-color="rgb(232,238,247)" offset="0%"/>
        <stop stop-opacity="1" stop-color="rgb(183,201,227)" offset="100%"/>
      </linearGradient>
      <linearGradient x1="127" gradientUnits="userSpaceOnUse" x2="278" y1="251.28" y2="291.28" id="linearGradient6" spreadMethod="reflect">
        <stop stop-opacity="1" stop-color="rgb(232,238,247)" offset="0%"/>
        <stop stop-opacity="1" stop-color="rgb(183,201,227)" offset="100%"/>
      </linearGradient>
      <clipPath clipPathUnits="userSpaceOnUse" id="clipPath1">
        <path d="M0 0 L481 0 L481 315 L0 315 L0 0 Z"/>
      </clipPath>
      <clipPath clipPathUnits="userSpaceOnUse" id="clipPath2">
        <path d="M92 236 L573 236 L573 551 L92 551 L92 236 Z"/>
      </clipPath>
    </defs>
    <g fill="white" text-rendering="geometricPrecision" shape-rendering="geometricPrecision" transform="translate(-92,-236)" stroke="white">
      <rect x="92" width="481" height="315" y="236" clip-path="url(#clipPath2)" stroke="none"/>
    </g>
    <g fill="url(#linearGradient1)" text-rendering="geometricPrecision" shape-rendering="geometricPrecision" transform="matrix(1,0,0,1,-92,-236)" stroke="url(#linearGradient1)">
      <path d="M406.68 390 L557.68 390 L557.68 430 L406.68 430 Z" stroke="none" clip-path="url(#clipPath2)"/>
    </g>
    <g text-rendering="geometricPrecision" stroke-miterlimit="1.45" shape-rendering="geometricPrecision" transform="matrix(1,0,0,1,-92,-236)" stroke-linecap="butt">
      <path fill="none" d="M406.68 390 L557.68 390 L557.68 430 L406.68 430 Z" clip-path="url(#clipPath2)"/>
      <text x="430.8284" xml:space="preserve" y="414.7139" clip-path="url(#clipPath2)" font-family="sans-serif" stroke="none">Custom::parameter</text>
    </g>
    <g fill="url(#linearGradient2)" text-rendering="geometricPrecision" shape-rendering="geometricPrecision" transform="matrix(1,0,0,1,-92,-236)" stroke="url(#linearGradient2)">
      <path d="M406.68 460 L557.68 460 L557.68 500 L406.68 500 Z" stroke="none" clip-path="url(#clipPath2)"/>
    </g>
    <g text-rendering="geometricPrecision" stroke-miterlimit="1.45" shape-rendering="geometricPrecision" transform="matrix(1,0,0,1,-92,-236)" stroke-linecap="butt">
      <path fill="none" d="M406.68 460 L557.68 460 L557.68 500 L406.68 500 Z" clip-path="url(#clipPath2)"/>
      <text x="416.8099" xml:space="preserve" y="484.7139" clip-path="url(#clipPath2)" font-family="sans-serif" stroke="none">UserLand::specialization</text>
    </g>
    <g fill="url(#linearGradient3)" text-rendering="geometricPrecision" shape-rendering="geometricPrecision" transform="matrix(1,0,0,1,-92,-236)" stroke="url(#linearGradient3)">
      <path d="M406.68 251.28 L557.68 251.28 L557.68 291.28 L406.68 291.28 Z" stroke="none" clip-path="url(#clipPath2)"/>
    </g>
    <g text-rendering="geometricPrecision" stroke-miterlimit="1.45" shape-rendering="geometricPrecision" transform="matrix(1,0,0,1,-92,-236)" stroke-linecap="butt">
      <path fill="none" d="M406.68 251.28 L557.68 251.28 L557.68 291.28 L406.68 291.28 Z" clip-path="url(#clipPath2)"/>
      <text x="454.8343" xml:space="preserve" y="275.9939" clip-path="url(#clipPath2)" font-family="sans-serif" stroke="none">parameter</text>
    </g>
    <g fill="url(#linearGradient4)" text-rendering="geometricPrecision" shape-rendering="geometricPrecision" transform="matrix(1,0,0,1,-92,-236)" stroke="url(#linearGradient4)">
      <path d="M127 390 L278 390 L278 430 L127 430 Z" stroke="none" clip-path="url(#clipPath2)"/>
    </g>
    <g text-rendering="geometricPrecision" stroke-miterlimit="1.45" shape-rendering="geometricPrecision" transform="matrix(1,0,0,1,-92,-236)" stroke-linecap="butt">
      <path fill="none" d="M127 390 L278 390 L278 430 L127 430 Z" clip-path="url(#clipPath2)"/>
      <text x="185.4961" xml:space="preserve" y="414.7139" clip-path="url(#clipPath2)" font-family="sans-serif" stroke="none">kickoff</text>
    </g>
    <g fill="url(#linearGradient5)" text-rendering="geometricPrecision" shape-rendering="geometricPrecision" transform="matrix(1,0,0,1,-92,-236)" stroke="url(#linearGradient5)">
      <path d="M127 460 L278 460 L278 500 L127 500 Z" stroke="none" clip-path="url(#clipPath2)"/>
    </g>
    <g text-rendering="geometricPrecision" stroke-miterlimit="1.45" shape-rendering="geometricPrecision" transform="matrix(1,0,0,1,-92,-236)" stroke-linecap="butt">
      <path fill="none" d="M127 460 L278 460 L278 500 L127 500 Z" clip-path="url(#clipPath2)"/>
      <text x="179.4844" xml:space="preserve" y="484.7139" clip-path="url(#clipPath2)" font-family="sans-serif" stroke="none">userland</text>
    </g>
    <g fill="url(#linearGradient6)" text-rendering="geometricPrecision" shape-rendering="geometricPrecision" transform="matrix(1,0,0,1,-92,-236)" stroke="url(#linearGradient6)">
      <path d="M127 251.28 L278 251.28 L278 291.28 L127 291.28 Z" stroke="none" clip-path="url(#clipPath2)"/>
    </g>
    <g text-rendering="geometricPrecision" stroke-miterlimit="1.45" shape-rendering="geometricPrecision" transform="matrix(1,0,0,1,-92,-236)" stroke-linecap="butt">
      <path fill="none" d="M127 251.28 L278 251.28 L278 291.28 L127 291.28 Z" clip-path="url(#clipPath2)"/>
      <text x="137.127" xml:space="preserve" y="275.9939" clip-path="url(#clipPath2)" font-family="sans-serif" stroke="none">Backend::work_backend</text>
    </g>
    <g text-rendering="geometricPrecision" stroke-miterlimit="1.45" shape-rendering="geometricPrecision" transform="matrix(1,0,0,1,-92,-236)" stroke-linecap="butt">
      <path fill="none" d="M482.18 460.0049 L482.18 437.9727" clip-path="url(#clipPath2)"/>
    </g>
    <g text-rendering="geometricPrecision" stroke-miterlimit="1.45" shape-rendering="geometricPrecision" transform="matrix(1,0,0,1,-92,-236)" stroke-linecap="butt">
      <path d="M482.18 429.9727 L477.18 441.9727 L482.18 438.9727 L487.18 441.9727 Z" stroke="none" clip-path="url(#clipPath2)"/>
      <path fill="none" d="M482.18 389.9845 L482.18 299.3056" clip-path="url(#clipPath2)"/>
      <path d="M482.18 291.3056 L477.18 303.3056 L482.18 300.3056 L487.18 303.3056 Z" clip-path="url(#clipPath2)" stroke="none"/>
      <path fill="none" d="M458.7993 291.2786 L320 410 L285.9742 410" clip-path="url(#clipPath2)"/>
      <path d="M277.9742 410 L289.9742 415 L286.9742 410 L289.9742 405 Z" clip-path="url(#clipPath2)" stroke="none"/>
      <path fill="none" stroke-dasharray="6,2" d="M406.6729 410 L320 410 L285.9742 410" clip-path="url(#clipPath2)"/>
      <path stroke-dasharray="6,2" d="M277.9742 410 L289.9742 415 L286.9742 410 L289.9742 405 Z" clip-path="url(#clipPath2)" stroke="none"/>
      <path fill="none" d="M466.6391 291.2806 L320 480 L285.9742 480" clip-path="url(#clipPath2)"/>
      <path d="M277.9742 480 L289.9742 485 L286.9742 480 L289.9742 475 Z" clip-path="url(#clipPath2)" stroke="none"/>
      <path fill="none" stroke-dasharray="6,2" d="M435.8146 430.0122 L320 480 L285.9742 480" clip-path="url(#clipPath2)"/>
      <path stroke-dasharray="6,2" d="M277.9742 480 L289.9742 485 L286.9742 480 L289.9742 475 Z" clip-path="url(#clipPath2)" stroke="none"/>
      <path fill="none" d="M202.5 499.9972 L202.5 535.72 L482.18 535.72 L482.18 507.9972" clip-path="url(#clipPath2)"/>
      <path d="M482.18 499.9972 L477.18 511.9972 L482.18 508.9972 L487.18 511.9972 Z" clip-path="url(#clipPath2)" stroke="none"/>
      <path fill="none" d="M202.5 389.9845 L202.5 299.3056" clip-path="url(#clipPath2)"/>
      <path d="M202.5 291.3056 L197.5 303.3056 L202.5 300.3056 L207.5 303.3056 Z" clip-path="url(#clipPath2)" stroke="none"/>
      <path fill="none" d="M277.9849 271.28 L398.6537 271.28" clip-path="url(#clipPath2)"/>
      <path d="M406.6537 271.28 L394.6537 266.28 L397.6537 271.28 L394.6537 276.28 Z" clip-path="url(#clipPath2)" stroke="none"/>
      <path fill="none" stroke-dasharray="6,2" d="M127.0046 271.28 L107 271.28 L107 410 L119.0046 410" clip-path="url(#clipPath2)"/>
      <path stroke-dasharray="6,2" d="M127.0046 410 L115.0046 405 L118.0046 410 L115.0046 415 Z" clip-path="url(#clipPath2)" stroke="none"/>
      <path fill="none" stroke-dasharray="6,2" d="M127.0046 271.28 L107 271.28 L107 476.16 L119.0111 476.6429" clip-path="url(#clipPath2)"/>
      <path stroke-dasharray="6,2" d="M127.0046 476.9644 L115.2152 471.4863 L118.0119 476.6028 L114.8134 481.4782 Z" clip-path="url(#clipPath2)" stroke="none"/>
    </g>
  </g>
</svg>
